<svg id="svg" version="1.1" xmlns="http://www.w3.org/2000/svg" xmlns:xlink="http://www.w3.org/1999/xlink" width="400" height="400" viewBox="0, 0, 400,400"><g id="svgg"><path id="path0" d="M198.237 19.665 C 197.454 20.580,195.062 24.015,192.923 27.298 C 190.784 30.580,187.043 36.266,184.610 39.933 L 180.186 46.600 178.193 46.520 C 176.249 46.442,170.714 44.631,154.600 38.800 C 142.223 34.321,142.421 34.194,146.198 44.200 C 146.780 45.740,147.761 48.440,148.378 50.200 C 148.996 51.960,150.084 54.930,150.796 56.800 C 151.509 58.670,152.781 62.090,153.624 64.400 C 158.155 76.815,159.189 79.431,159.693 79.749 C 160.052 79.976,162.490 79.385,166.623 78.069 C 178.596 74.257,184.113 73.250,194.819 72.923 C 210.052 72.457,219.463 73.693,232.400 77.857 C 241.331 80.732,240.948 80.899,243.747 72.938 C 244.508 70.772,246.070 66.480,247.217 63.400 C 253.548 46.402,256.571 37.423,256.247 36.577 C 255.845 35.531,252.802 36.423,233.600 43.209 C 219.336 48.251,222.275 49.672,210.634 32.112 C 200.580 16.945,200.572 16.937,198.237 19.665 M184.000 81.167 C 152.407 86.961,127.636 108.206,118.200 137.600 C 115.101 147.256,114.858 150.039,114.003 185.800 C 113.487 207.391,113.101 209.898,108.944 218.692 C 100.814 235.887,88.121 244.396,67.000 246.809 C 60.576 247.544,60.400 247.636,60.400 250.253 C 60.400 259.895,70.197 280.737,79.412 290.700 C 83.150 294.741,82.949 294.745,87.600 290.530 C 96.723 282.261,103.673 277.082,112.800 271.748 C 116.791 269.416,128.005 264.000,128.843 264.000 C 129.161 264.000,129.786 263.745,130.231 263.433 C 131.020 262.880,139.807 259.755,145.400 258.038 C 152.960 255.718,167.253 252.998,178.200 251.797 C 190.201 250.481,213.641 250.685,218.400 252.146 C 219.390 252.451,222.360 252.909,225.000 253.166 C 251.601 255.751,275.985 263.249,291.400 273.581 C 292.280 274.171,295.250 276.161,298.000 278.004 C 303.706 281.826,305.182 282.993,311.585 288.746 C 318.155 294.648,318.131 294.646,322.308 289.564 C 331.377 278.531,337.775 264.835,339.599 252.550 C 340.340 247.564,340.259 247.494,333.200 246.996 C 326.890 246.552,318.865 244.378,313.616 241.692 C 298.763 234.092,289.177 220.064,287.176 203.000 C 286.969 201.240,286.621 190.260,286.401 178.600 C 285.881 151.036,285.231 143.387,282.956 138.068 C 282.611 137.260,281.897 135.297,281.370 133.704 C 272.735 107.626,243.507 84.578,214.509 80.980 C 207.605 80.124,189.070 80.238,184.000 81.167 M225.718 129.200 C 232.699 143.050,244.047 154.471,255.556 159.231 C 257.230 159.923,259.171 160.724,259.869 161.011 C 262.529 162.105,262.570 162.355,262.065 174.519 C 261.444 189.485,258.973 199.660,254.209 206.859 C 253.654 207.697,253.200 208.489,253.200 208.620 C 253.200 209.568,247.368 217.296,244.311 220.400 C 209.167 256.081,149.651 237.873,139.760 188.414 C 138.533 182.276,138.024 177.238,138.010 171.091 C 137.998 165.509,137.518 165.964,144.401 165.032 C 149.236 164.378,158.671 162.422,162.150 161.354 C 185.992 154.033,201.569 145.004,216.400 129.911 C 223.054 123.139,222.678 123.168,225.718 129.200 M165.797 264.165 C 158.152 267.110,150.535 272.342,145.542 278.077 C 138.786 285.836,136.563 292.564,136.115 306.600 C 135.866 314.402,135.745 314.091,139.600 315.596 C 148.476 319.062,155.086 325.869,156.423 332.920 C 156.964 335.773,156.911 355.032,156.359 356.126 C 152.762 363.262,141.148 361.114,141.042 353.293 C 140.991 349.563,142.517 347.880,146.700 347.054 L 149.000 346.600 149.117 342.600 C 149.471 330.477,142.561 322.400,131.835 322.400 C 120.981 322.400,114.660 329.375,113.738 342.370 C 113.446 346.487,113.537 346.609,117.478 347.423 C 125.208 349.018,124.696 358.523,116.800 360.005 C 110.994 361.095,107.526 358.742,106.730 353.175 C 106.238 349.733,106.584 335.579,107.228 332.800 C 108.889 325.630,115.526 318.645,123.200 315.988 C 126.935 314.695,127.078 314.452,127.358 308.905 C 128.281 290.661,130.522 284.177,140.179 271.800 C 144.075 266.807,142.805 266.695,132.000 271.080 C 115.136 277.923,101.481 287.218,87.885 301.108 C 84.114 304.960,83.449 305.758,77.593 313.450 C 63.069 332.531,55.080 355.027,53.384 381.629 C 53.024 387.264,52.693 387.004,60.664 387.335 C 68.800 387.672,189.110 387.676,191.917 387.339 C 195.404 386.920,195.391 387.352,192.396 372.000 C 191.559 367.710,190.300 361.140,189.598 357.400 C 188.057 349.190,185.421 335.653,184.613 331.800 C 184.290 330.260,183.832 327.830,183.595 326.400 C 183.359 324.970,182.108 318.490,180.815 312.000 C 179.522 305.510,177.900 297.230,177.209 293.600 C 176.518 289.970,175.588 285.290,175.143 283.200 C 174.697 281.110,173.821 276.970,173.196 274.000 C 170.612 261.710,170.961 262.175,165.797 264.165 M230.158 263.506 C 229.351 264.042,229.205 264.652,225.160 284.400 C 223.500 292.502,223.065 294.697,221.599 302.400 C 221.117 304.930,220.377 308.710,219.953 310.800 C 218.346 318.726,217.610 322.455,216.002 330.800 C 212.926 346.762,212.335 349.785,211.308 354.800 C 210.745 357.550,210.201 360.250,210.098 360.800 C 209.996 361.350,209.204 365.310,208.338 369.600 C 205.756 382.388,205.645 382.988,205.542 384.730 C 205.487 385.663,205.664 386.624,205.942 386.902 C 206.697 387.656,342.738 387.604,344.925 386.848 C 347.067 386.108,347.257 385.315,346.783 379.092 C 344.312 346.619,332.308 320.612,309.200 297.664 C 302.774 291.282,293.695 283.967,288.464 280.957 C 278.267 275.090,267.663 270.158,261.800 268.556 C 257.538 267.391,256.961 268.107,259.735 271.117 C 266.340 278.287,271.438 288.585,272.350 296.600 C 272.757 300.181,273.472 310.207,273.737 316.076 C 273.913 319.941,274.461 320.820,277.251 321.704 C 286.035 324.489,293.585 334.976,293.592 344.400 C 293.607 367.109,269.110 378.141,252.662 362.831 C 239.466 350.548,244.934 326.382,262.000 321.570 C 265.641 320.543,265.698 320.098,264.369 303.000 C 263.183 287.740,257.257 277.748,244.156 268.918 C 238.890 265.368,231.598 262.549,230.158 263.506 M264.400 334.091 C 255.085 338.698,255.046 352.695,264.337 356.281 C 276.709 361.056,286.968 346.574,278.145 336.788 C 274.946 333.240,268.627 332.000,264.400 334.091 " stroke="none" fill="#ffffff" fill-rule="evenodd"></path></g></svg>
